HIERARCHY
ROOT hip
{
  OFFSET 0 0 0
  CHANNELS 6 Xposition Yposition Zposition Zrotation Yrotation Xrotation
  JOINT abdomen
  {
    OFFSET 0 20.6881 -0.73152
    CHANNELS 3 Zrotation Xrotation Yrotation
    JOINT chest
    {
      OFFSET 0 11.7043 -0.48768
      CHANNELS 3 Zrotation Xrotation Yrotation
      JOINT neck
      {
        OFFSET 0 22.1894 -2.19456
        CHANNELS 3 Zrotation Xrotation Yrotation
        JOINT head
        {
          OFFSET -0.24384 7.07133 1.2192
          CHANNELS 3 Zrotation Xrotation Yrotation
          JOINT leftEye
          {
            OFFSET 4.14528 8.04674 8.04672
            CHANNELS 3 Zrotation Xrotation Yrotation
            End Site
            {
              OFFSET 1 0 0
            }
          }
          JOINT rightEye
          {
            OFFSET -3.6576 8.04674 8.04672
            CHANNELS 3 Zrotation Xrotation Yrotation
            End Site
            {
              OFFSET 1 0 0
            }
          }
        }
      }
      JOINT rCollar
      {
        OFFSET -2.68224 19.2634 -4.8768
        CHANNELS 3 Zrotation Xrotation Yrotation
        JOINT rShldr
        {
          OFFSET -8.77824 -1.95073 1.46304
          CHANNELS 3 Zrotation Xrotation Yrotation
          JOINT rForeArm
          {
            OFFSET -28.1742 -1.7115 0.48768
            CHANNELS 3 Zrotation Xrotation Yrotation
            JOINT rHand
            {
              OFFSET -22.5879 0.773209 7.07136
              CHANNELS 3 Zrotation Xrotation Yrotation
              JOINT rThumb1
              {
                OFFSET -1.2192 -0.487915 3.41376
                CHANNELS 3 Zrotation Xrotation Yrotation
                JOINT rThumb2
                {
                  OFFSET -3.37035 -0.52449 3.41376
                  CHANNELS 3 Zrotation Xrotation Yrotation
                  End Site
                  {
                    OFFSET -1.78271 -1.18214 1.43049
                  }
                }
              }
              JOINT rIndex1
              {
                OFFSET -7.75947 0.938293 5.60832
                CHANNELS 3 Zrotation Xrotation Yrotation
                JOINT rIndex2
                {
                  OFFSET -2.54057 -0.884171 1.56538
                  CHANNELS 3 Zrotation Xrotation Yrotation
                  End Site
                  {
                    OFFSET -1.62519 -0.234802 1.16502
                  }
                }
              }
              JOINT rMid1
              {
                OFFSET -8.24714 1.18213 3.41376
                CHANNELS 3 Zrotation Xrotation Yrotation
                JOINT rMid2
                {
                  OFFSET -3.10165 -0.590103 1.0647
                  CHANNELS 3 Zrotation Xrotation Yrotation
                  End Site
                  {
                    OFFSET -2.48547 -0.328903 0.83742
                  }
                }
              }
              JOINT rRing1
              {
                OFFSET -8.82822 0.546677 1.51678
                CHANNELS 3 Zrotation Xrotation Yrotation
                JOINT rRing2
                {
                  OFFSET -2.60934 -0.819778 -0.0198488
                  CHANNELS 3 Zrotation Xrotation Yrotation
                  End Site
                  {
                    OFFSET -2.33842 -0.294052 0.168128
                  }
                }
              }
              JOINT rPinky1
              {
                OFFSET -8.27202 -0.0477905 -0.4584
                CHANNELS 3 Zrotation Xrotation Yrotation
                JOINT rPinky2
                {
                  OFFSET -1.82734 -0.647385 -0.700984
                  CHANNELS 3 Zrotation Xrotation Yrotation
                  End Site
                  {
                    OFFSET -1.69225 -0.51767 -0.607171
                  }
                }
              }
            }
          }
        }
      }
      JOINT lCollar
      {
        OFFSET 2.68224 19.2634 -4.8768
        CHANNELS 3 Zrotation Xrotation Yrotation
        JOINT lShldr
        {
          OFFSET 8.77824 -1.95073 1.46304
          CHANNELS 3 Zrotation Xrotation Yrotation
          JOINT lForeArm
          {
            OFFSET 28.1742 -1.7115 0.48768
            CHANNELS 3 Zrotation Xrotation Yrotation
            JOINT lHand
            {
              OFFSET 22.5879 0.773209 7.07136
              CHANNELS 3 Zrotation Xrotation Yrotation
              JOINT lThumb1
              {
                OFFSET 1.2192 -0.487915 3.41376
                CHANNELS 3 Zrotation Xrotation Yrotation
                JOINT lThumb2
                {
                  OFFSET 3.37035 -0.52449 3.41376
                  CHANNELS 3 Zrotation Xrotation Yrotation
                  End Site
                  {
                    OFFSET 1.78271 -1.18214 1.43049
                  }
                }
              }
              JOINT lIndex1
              {
                OFFSET 7.75947 0.938293 5.60832
                CHANNELS 3 Zrotation Xrotation Yrotation
                JOINT lIndex2
                {
                  OFFSET 2.54057 -0.884171 1.56538
                  CHANNELS 3 Zrotation Xrotation Yrotation
                  End Site
                  {
                    OFFSET 1.62519 -0.234802 1.16502
                  }
                }
              }
              JOINT lMid1
              {
                OFFSET 8.24714 1.18213 3.41376
                CHANNELS 3 Zrotation Xrotation Yrotation
                JOINT lMid2
                {
                  OFFSET 3.10165 -0.590103 1.0647
                  CHANNELS 3 Zrotation Xrotation Yrotation
                  End Site
                  {
                    OFFSET 2.48547 -0.328903 0.83742
                  }
                }
              }
              JOINT lRing1
              {
                OFFSET 8.82822 0.546677 1.51678
                CHANNELS 3 Zrotation Xrotation Yrotation
                JOINT lRing2
                {
                  OFFSET 2.60934 -0.819778 -0.0198488
                  CHANNELS 3 Zrotation Xrotation Yrotation
                  End Site
                  {
                    OFFSET 2.33842 -0.294052 0.168128
                  }
                }
              }
              JOINT lPinky1
              {
                OFFSET 8.27202 -0.0477905 -0.4584
                CHANNELS 3 Zrotation Xrotation Yrotation
                JOINT lPinky2
                {
                  OFFSET 1.82734 -0.647385 -0.700984
                  CHANNELS 3 Zrotation Xrotation Yrotation
                  End Site
                  {
                    OFFSET 1.69225 -0.51767 -0.607171
                  }
                }
              }
            }
          }
        }
      }
    }
  }
  JOINT rButtock
  {
    OFFSET -8.77824 4.35084 1.2192
    CHANNELS 3 Zrotation Xrotation Yrotation
    JOINT rThigh
    {
      OFFSET 0 -1.70687 -2.19456
      CHANNELS 3 Zrotation Xrotation Yrotation
      JOINT rShin
      {
        OFFSET 0 -36.8199 0.73152
        CHANNELS 3 Zrotation Xrotation Yrotation
        JOINT rFoot
        {
          OFFSET 0.73152 -45.1104 -5.12064
          CHANNELS 3 Zrotation Xrotation Yrotation
          End Site
          {
            OFFSET -1.1221 -3.69964 12.103
          }
        }
      }
    }
  }
  JOINT lButtock
  {
    OFFSET 8.77824 4.35084 1.2192
    CHANNELS 3 Zrotation Xrotation Yrotation
    JOINT lThigh
    {
      OFFSET 0 -1.70687 -2.19456
      CHANNELS 3 Zrotation Xrotation Yrotation
      JOINT lShin
      {
        OFFSET 0 -36.8199 0.73152
        CHANNELS 3 Zrotation Xrotation Yrotation
        JOINT lFoot
        {
          OFFSET -0.73152 -45.1104 -5.12064
          CHANNELS 3 Zrotation Xrotation Yrotation
          End Site
          {
            OFFSET 1.1221 -3.69964 12.103
          }
        }
      }
    }
  }
}
MOTION
Frames:	4
Frame Time:	0.03333
2.4434012416750193 -1.8547273874282837 -8.015648499131203 -47.336204051971436 66.73944354057312 -64.49998140335083 9.77208137512207 22.491725385189056 6.53695710003376 0.1885391352698207 -11.47523581981659 0.06864074617624283 -0.4273846931755543 14.013547003269196 4.354029893875122 4.833220951259136 -19.938943684101105 11.311379671096802 -0.30799014028161764 0.2273237518966198 -0.07533658761531115 0.6185739347711205 -0.4370932839810848 -0.8209174778312445 1.6939417272806168 -0.5618945835158229 -0.3418425936251879 75.85335910320282 46.48823440074921 -44.08994257450104 -29.42252665758133 -44.549458622932434 89.67282950878143 -6.409371793270111 -42.50805079936981 0.03124346025288105 -0.01709790900349617 0.3759791934862733 -1.0435526445508003 -0.07001843769103289 0.42067933827638626 -0.3547046659514308 1.9223001413047314 0.06936448160558939 1.1824947595596313 8.177003860473633 3.481888175010681 -0.880702156573534 3.2844792678952217 1.2292040884494781 2.522401325404644 3.1096381321549416 1.3513634540140629 -1.3330629095435143 -2.5732865184545517 -2.1172058768570423 0.057557858526706696 11.221280246973038 0.34808463882654905 -0.18049213103950024 1.5148393996059895 -0.9426323510706425 1.305698174983263 2.2090919874608517 -1.052894527092576 -1.234078835695982 -0.8974292501807213 1.620880700647831 0.024875576491467655 -6.206175684928894 42.98673927783966 -84.42126274108887 26.517353653907776 -39.327811896800995 -87.658651471138 1.4078179188072681 -6.327390745282173 -5.034242458641529 2.292318418622017 -0.16718437196686864 0.0834505318198353 0.551617406308651 0.6264282390475273 -3.724541589617729 0.44499993324279785 -0.9190034307539463 0.5337697360664606 -6.76202729344368 5.796466916799545 -0.25086267152801156 -0.17225854564458132 -0.717681935057044 -0.41710403747856617 -2.9367513209581375 1.0919643379747868 1.1465064715594053 -3.6289550364017487 1.6943591460585594 0.20240762270987034 -10.915016233921051 1.417375635355711 -2.014866527169943 -1.5134171582758427 -0.2861161809414625 -0.0045816320925951 -2.473353613168001 0.706194955855608 0.7865259423851967 -1.2206680420786142 -0.021364546555560082 -1.1199335753917694 -24.744164049625397 -31.35196566581726 -20.10996401309967 -5.7789138704538345 63.086349964141846 -2.666763514280319 -9.373387098312378 -22.61373370885849 -2.7352161705493927 -2.2661003284156322 0.46632525511085987 -0.2837928431108594 47.25040018558502 -44.323718547821045 34.168223440647125 1.9502851366996765 61.67581915855408 5.5235618725419044 3.605208769440651 -8.353525400161743 -1.699254848062992
2.908147180452943 -1.7910130023956299 -7.545763656497002 -52.60653018951416 66.64383351802826 -70.55001497268677 8.096827268600464 22.222171425819397 6.390411928296089 0.6180057255551219 -11.241753548383713 -0.24543260224163532 -0.631876140832901 13.533925116062164 4.174328595399857 3.739125430583954 -20.713989436626434 12.964610159397125 -0.41682596784085035 -0.9734950214624405 -0.31457940582185984 1.0111906193196774 -0.419954638928175 -1.079430291429162 1.8550871685147285 -0.5549546610563993 -0.5336140003055334 83.65849614143372 46.36158585548401 -47.64794111251831 -28.377977907657623 -44.990172386169434 90.3990375995636 -6.823433116078377 -45.75230062007904 -1.3579932879656553 -0.0028793513774871826 -0.03210918512195349 -0.5834491923451424 -0.4719615401700139 0.807719249278307 -0.46094021759927273 1.9070816226303577 0.03143033478409052 0.8621856104582548 8.18905234336853 3.623310998082161 -0.7991643436253071 3.1821023672819138 1.0264785401523113 2.9735512286424637 2.8867435455322266 1.2955171801149845 -1.335300039499998 -1.9982665032148361 -2.060431558638811 0.37002531811594963 11.415692120790482 -0.2910537086427212 -0.1254846341907978 1.346206571906805 -0.9532352909445763 1.3398311287164688 2.4301633425056934 -0.875476123765111 -1.6976463608443737 -0.8154173567891121 1.1146906949579716 -0.3244386403821409 -7.423571348190308 42.441800236701965 -82.00040280818939 25.96826523542404 -35.42358577251434 -82.23769783973694 1.367297787219286 -6.099987030029297 -5.733595937490463 2.621479108929634 -0.0992922973819077 0.5334871402010322 0.5589324189350009 0.5409552901983261 -3.401571772992611 -0.3552398085594177 -0.8810863830149174 0.16427180729806423 -6.857969909906387 6.1061762273311615 -0.1880388194695115 0.10709385853260756 0.02825581468641758 -0.6137752532958984 -3.0162251740694046 0.9878337755799294 1.2563191261142492 -4.284253567457199 1.5462462231516838 -0.13600610196590424 -10.798014253377914 1.5171692334115505 -1.806738842278719 -1.3743709400296211 -0.3180572879500687 -0.16665805131196976 -2.5427203997969627 0.8174563385546207 0.39484392385929823 -1.3368581514805555 0.03942394891055301 -0.9203452058136463 -21.87291830778122 -27.585098147392273 -17.036546766757965 -3.784804791212082 60.280855894088745 -6.05034738779068 -9.373566806316376 -24.531580209732056 -5.306166484951973 -2.407277226448059 0.5104677099734545 -0.35990622360259295 51.63505017757416 -46.45794689655304 36.56741380691528 3.5282354056835175 63.461167216300964 4.847221411764622 1.7632080987095833 -6.035214364528656 -4.425678737461567
3.4920632485300303 -1.7150706052780151 -7.1351544708013535 -41.800245344638824 63.5786372423172 -59.084075689315796 6.79890900850296 20.534190237522125 7.195977866649628 1.2104004621505737 -10.260494202375412 -0.025409990921616554 -1.074847485870123 14.427378326654434 1.1754507757723331 2.492358908057213 -21.167081594467163 8.245964124798775 -0.9029411897063255 -2.3347673937678337 -0.05784028675407171 1.870270986109972 -0.19687967374920845 -1.4826342836022377 1.717563271522522 -0.6265936978161335 -1.7319446057081223 90.42855262756348 46.34639918804169 -47.40320026874542 -28.54833036661148 -45.69987416267395 90.28446435928345 -11.532810777425766 -56.50541603565216 -5.096924342215061 -0.0012359954416751862 -0.1775757735595107 -0.9156287088990211 -0.62361313495785 0.4656257014721632 -0.555693693459034 1.911209374666214 0.057065882720053196 0.3008401673287153 8.509369790554047 3.762059658765793 -0.5270236451178789 3.1666649132966995 0.9329844452440739 3.3776917308568954 2.36934307962656 1.3306366000324488 -1.656464897096157 -2.194982897490263 -1.9760878197848797 0.5369110219180584 10.963848531246185 -0.49302916042506695 0.21953394636511803 0.2752658911049366 -1.1607378534972668 2.0394757948815823 2.5385048054158688 -0.8833402767777443 -1.0564842447638512 -1.065951269119978 0.1616191864013672 -0.45807394199073315 -6.065322160720825 43.32487463951111 -83.09203505516052 26.39662742614746 -34.77293819189072 -80.18504619598389 3.044363558292389 -9.835840836167336 0.39267351385205984 2.5159767642617226 0.38168320432305336 0.8227530308067799 0.05691878031939268 0.7660717517137527 -2.045816872268915 -0.7803422771394253 -0.45312664937227964 -0.42516608722507954 -7.490337565541267 6.31592832505703 0.11168806347995996 -0.034851827658712864 -0.5053505580872297 -0.5734370928257704 -3.499847911298275 0.8869741670787334 0.8974202815443277 -5.703810676932335 1.479056216776371 -0.12494366616010666 -10.978348553180695 1.2752141989767551 -1.5774173475801945 -1.3404950592666864 -0.5493211420252919 -0.4491294454783201 -2.7489785850048065 0.892002135515213 -0.2106991270557046 -1.5540978871285915 -0.5344209261238575 -1.0171645693480968 -17.801928520202637 -22.576188147068024 -15.075704455375671 1.1895080655813217 58.174967765808105 -16.808485239744186 -9.097198694944382 -28.52648377418518 -11.120437234640121 -1.8992909789085388 0.610401788726449 -0.6017528800293803 54.102580547332764 -52.6969313621521 35.34474492073059 -3.1562773883342743 67.45453119277954 8.933097124099731 -2.268669717013836 -2.864321954548359 -11.284419447183609
4.064607942476869 -1.6639785766601562 -6.788566395640373 -22.28655517101288 56.32112681865692 -44.573005735874176 4.496951065957546 18.146249055862427 7.630212754011154 1.3594434410333633 -9.769680798053741 0.8383665047585964 -2.176690734922886 13.731606602668762 -0.2575542591512203 0.8847950398921967 -21.37256696820259 4.354139193892479 -0.674472595565021 -1.7682181298732758 0.014711120165884495 2.0892354659736156 -0.01883145421743393 -2.0377075485885143 1.4568884298205376 -0.8012154791504145 -2.712354026734829 92.02675223350525 39.120721220970154 -42.15323477983475 -29.475958943367004 -47.14427590370178 89.53575789928436 -11.756566017866135 -65.44814765453339 -7.448027059435844 -0.334565844386816 -0.11513897683471441 -1.233421191573143 -1.880982220172882 -0.31166053377091885 0.052171479910612106 1.5506834350526333 -0.08401177357882261 -0.17567597329616547 8.395065441727638 3.7005016207695007 -0.5689149722456932 2.7106789872050285 1.36133573949337 2.7649731002748013 1.535920724272728 1.1219088546931744 -1.4548083767294884 -3.4116163104772568 -1.317737102508545 0.4081478901207447 9.643572717905045 -0.08883488830178976 0.041212309151887894 -0.7179740443825722 -1.1963192000985146 2.7833272889256477 2.600710429251194 -1.3890830241143703 -1.7139432951807976 -1.433676928281784 -0.37227267399430275 0.3637461829930544 -10.435989797115326 44.0844064950943 -72.15020477771759 27.029065489768982 -33.17713916301727 -76.00817084312439 6.377624496817589 -14.46385771036148 5.216754376888275 1.6236534342169762 0.9606582205742598 1.2573550455272198 -0.44063476379960775 1.0916813649237156 -0.7915638014674187 -0.04238443449139595 0.15848456416279078 -0.18502053804695606 -7.994992509484291 6.116935908794403 0.6485158950090408 -0.720828752964735 -0.07285558618605137 -0.583107378333807 -3.5534897446632385 0.2861455176025629 0.20265111699700356 -4.188890643417835 1.175249107182026 -0.28369330801069736 -11.098775714635849 1.145597118884325 -1.4114120788872242 -1.3985818158835173 -1.5934484079480171 -0.9762103389948606 -2.5244706496596336 1.4984497614204884 -1.0163884051144123 -1.3450078759342432 -1.0410357266664505 -0.5716238357126713 -12.758423388004303 -20.199001282453537 -14.098912328481674 7.175968587398529 59.781004786491394 -17.96808198094368 -7.427835389971733 -29.02242422103882 -16.45887941122055 -0.667367298156023 0.26662942953407764 -0.8914031647145748 52.64989614486694 -57.55479276180267 36.1257129907608 -8.029810935258865 71.2344878911972 7.957392632961273 -2.0687318220734596 -0.4286525398492813 -13.184233456850052
